<svg display="none" xmlns="http://www.w3.org/2000/svg">
  	<symbol id="header__search" viewBox="0 0 21 21">
		<path xmlns="http://www.w3.org/2000/svg" d="M19.9399 18.348L15.4877 13.8939C16.8226 12.1544 17.4458 9.97216 17.2309 7.78998C17.0161 5.60781 15.9792 3.58907 14.3306 2.14328C12.6821 0.697486 10.5453 -0.0670986 8.35376 0.00462578C6.16221 0.0763502 4.07999 0.979013 2.5295 2.5295C0.979013 4.07999 0.0763502 6.16221 0.00462578 8.35376C-0.0670986 10.5453 0.697486 12.6821 2.14328 14.3306C3.58907 15.9792 5.60781 17.0161 7.78998 17.2309C9.97216 17.4458 12.1544 16.8226 13.8939 15.4877L18.3499 19.9445C18.4545 20.0492 18.5787 20.1322 18.7155 20.1888C18.8522 20.2455 18.9987 20.2746 19.1467 20.2746C19.2947 20.2746 19.4413 20.2455 19.578 20.1888C19.7147 20.1322 19.839 20.0492 19.9436 19.9445C20.0482 19.8399 20.1313 19.7157 20.1879 19.5789C20.2445 19.4422 20.2737 19.2957 20.2737 19.1477C20.2737 18.9997 20.2445 18.8531 20.1879 18.7164C20.1313 18.5797 20.0482 18.4554 19.9436 18.3508L19.9399 18.348ZM2.26891 8.64392C2.26891 7.38306 2.6428 6.15052 3.3433 5.10215C4.04379 4.05379 5.03943 3.23669 6.20431 2.75418C7.36919 2.27167 8.65099 2.14543 9.88762 2.39141C11.1242 2.63739 12.2602 3.24455 13.1517 4.13611C14.0433 5.02767 14.6504 6.16359 14.8964 7.40021C15.1424 8.63684 15.0162 9.91864 14.5336 11.0835C14.0511 12.2484 13.234 13.244 12.1857 13.9445C11.1373 14.645 9.90477 15.0189 8.64392 15.0189C6.95369 15.0172 5.3332 14.345 4.13803 13.1498C2.94286 11.9546 2.27065 10.3341 2.26891 8.64392Z" fill="#1E1E1E"/>
	</symbol>

	<symbol id="breadcrumbs__home" viewBox="0 0 18 18" fill="none">
		<path xmlns="http://www.w3.org/2000/svg" d="M6.08333 16.75V10.6636C6.08333 10.1034 6.5609 9.64923 7.15 9.64923H10.35C10.9391 9.64923 11.4167 10.1034 11.4167 10.6636V16.75M8.13184 0.937708L1.19851 5.62647C0.917125 5.81676 0.75 6.1248 0.75 6.45316V15.2284C0.75 16.0688 1.46634 16.75 2.35 16.75H15.15C16.0337 16.75 16.75 16.0688 16.75 15.2284V6.45316C16.75 6.1248 16.5829 5.81676 16.3015 5.62647L9.36816 0.937709C8.99807 0.687431 8.50193 0.68743 8.13184 0.937708Z" stroke="#1E1E1E" stroke-width="1.5" stroke-linecap="round"/>

	</symbol>

    

</svg>